<?xml version="1.0" encoding="UTF-8"?>
<svg id="Layer_1" data-name="Layer 1" xmlns="http://www.w3.org/2000/svg" viewBox="0 0 1085.03 337.48">
  <defs>
    <style>
      .cls-1 {
        fill: #fff;
      }
    </style>
  </defs>
  <g>
    <path class="cls-1" d="M156.15,215.28c-4.22,0-8.35-.34-12.44-.97l-29.98,33.27-29.89-33.14c-3.79.55-7.67.84-11.59.84-3.16,0-6.32-.17-9.44-.55l50.93,56.54,50.85-56.41c-2.78.3-5.61.42-8.43.42ZM205.52,69.07c-22.3-20.07-58.18-20.49-84.2-3.2l6.32,5.94c1.86,1.73,3.63,3.58,5.27,5.48,19.86-11.76,45.74-11.05,61.98,3.58,21.04,18.93,22.68,51.48,3.75,72.47l-12.69,14.08c2.78,5.14,5.02,10.67,6.66,16.36l17.83-19.82c24.79-27.49,22.6-70.07-4.93-94.9ZM21.91,69.07c-27.49,24.83-29.72,67.41-4.89,94.9l17.83,19.82c1.64-5.73,3.88-11.21,6.62-16.36l-12.69-14.08c-18.93-21-17.24-53.54,3.75-72.47,8.81-7.93,20.41-11.76,32.38-11.76,10.2,0,20.66,2.78,29.85,8.26,1.73-1.98,3.58-3.84,5.52-5.65l6.11-5.69c-26.06-17.5-62.1-17.12-84.49,3.04Z"/>
    <path class="cls-1" d="M182.75,194.71l-.84-3.84c-1.05-4.76-2.61-9.36-4.68-13.74-7.21-15.77-20.15-28.5-36.3-35.33.38-3.04.59-6.16.59-9.23,0-17.83-6.62-35.03-18.34-47.98-1.18-1.39-2.49-2.7-3.84-3.96l-5.4-5.06-5.44,5.06c-1.39,1.31-2.74,2.66-4.01,4.09-11.85,12.9-18.51,30.02-18.51,47.85,0,3.08.21,6.16.59,9.23-16.15,6.83-29.18,19.52-36.38,35.33-1.94,4.22-3.5,8.69-4.55,13.32l-.97,4.22-.63,2.82,4.55,1.52,2.28.76c6.83,2.23,14.04,3.41,21.38,3.41.46,0,.97,0,1.43-.04,14.63-.3,28.67-5.27,40.26-14.17,11.47,8.73,25.34,13.66,39.84,14.17.8.04,1.56.04,2.36.04,6.96,0,13.79-1.01,20.32-2.99l1.86-.55,5.19-1.6-.76-3.33ZM72.25,187.29c-2.99,0-5.94-.25-8.85-.72,4.97-12.77,14.71-23.23,27.07-29.13,2.78,7.42,6.75,14.29,11.81,20.36-8.77,6.16-19.23,9.49-30.02,9.49ZM113.86,166.88c-3.42-4.26-6.2-9.02-8.18-14.12,5.35-.76,10.88-.76,16.23.04-1.98,5.06-4.68,9.82-8.05,14.08ZM113.73,136.32c-3.92,0-7.84.34-11.68.97-.13-1.56-.21-3.16-.21-4.72,0-12.65,4.3-24.83,12.02-34.44,7.55,9.61,11.8,21.8,11.8,34.44,0,1.56-.08,3.16-.21,4.72-3.84-.63-7.76-.97-11.72-.97ZM125.5,177.76c4.98-6.07,8.85-12.9,11.59-20.28,12.35,5.94,22.09,16.48,27.03,29.22-2.61.42-5.27.59-7.97.59-11.05,0-21.67-3.33-30.65-9.53Z"/>
  </g>
  <rect class="cls-1" x="293.49" width="5.5" height="337.48"/>
  <g>
    <path class="cls-1" d="M423.62,72.73l-11.57,12.23c-1.89-2.49-4.47-4.5-7.74-6.03-3.28-1.53-6.58-2.29-9.91-2.29-3.53,0-6.4.78-8.59,2.35-2.19,1.56-3.28,3.71-3.28,6.45,0,2.93,1.19,5.17,3.58,6.72,2.39,1.54,6.52,3.12,12.38,4.73,6.59,1.77,11.73,3.59,15.43,5.46,3.7,1.87,6.57,4.29,8.62,7.26,2.13,3.22,3.19,7.33,3.19,12.36,0,5.9-1.4,11-4.19,15.28-2.79,4.28-6.49,7.45-11.09,9.52-4.6,2.07-9.79,3.1-15.58,3.1-6.19,0-12.14-1.33-17.87-3.98-5.72-2.65-10.53-6.47-14.43-11.45l12.17-12.71c2.33,3.38,5.41,6.01,9.25,7.89,3.84,1.89,7.76,2.83,11.78,2.83,3.58,0,6.46-.76,8.65-2.29,2.19-1.53,3.28-3.59,3.28-6.2s-1.15-4.65-3.46-6.12c-2.31-1.47-6.26-2.96-11.84-4.49-6.55-1.77-11.74-3.68-15.58-5.76-3.84-2.07-6.82-4.65-8.95-7.74-2.17-3.29-3.25-7.31-3.25-12.06,0-5.74,1.4-10.8,4.19-15.15,2.79-4.36,6.47-7.63,11.03-9.82s9.61-3.29,15.16-3.29,10.77,1.15,15.82,3.44,9.31,5.54,12.8,9.76Z"/>
    <path class="cls-1" d="M467.64,131.36l4.1,13.32c-4.86,2.61-9.68,3.92-14.46,3.92-6.07,0-11.02-1.95-14.85-5.85-3.84-3.89-5.76-9.22-5.76-15.97V61.46h17.54v63.45c0,2.49.67,4.45,2.02,5.88,1.34,1.42,3.14,2.14,5.39,2.14,1.97,0,3.98-.52,6.03-1.56Z"/>
    <path class="cls-1" d="M472.23,115.93c0-6.18,1.18-11.76,3.56-16.72,2.37-4.96,5.83-8.91,10.39-11.84s9.85-4.4,15.88-4.4c4.7,0,8.79.89,12.26,2.68,3.47,1.79,6.05,4.27,7.74,7.44v-8.68h16.93v42.12c0,2.09.55,3.68,1.66,4.76,1.11,1.09,2.56,1.63,4.37,1.63s3.25-.4,4.58-1.2l3.67,12.71c-3.7,2.77-7.98,4.16-12.83,4.16-4.02,0-7.49-1.05-10.42-3.13-2.93-2.09-4.8-4.98-5.6-8.68-2.05,3.78-5.01,6.69-8.89,8.74-3.88,2.05-8.41,3.08-13.59,3.08-5.87,0-11.08-1.44-15.64-4.31-4.56-2.87-8.05-6.78-10.46-11.72-2.41-4.94-3.61-10.49-3.61-16.63ZM493.92,103.22c-2.81,3.29-4.22,7.49-4.22,12.59s1.45,9.32,4.34,12.53c2.89,3.22,6.69,4.82,11.39,4.82s8.77-1.6,11.72-4.79c2.95-3.19,4.43-7.38,4.43-12.56s-1.49-9.26-4.46-12.59c-3.09-3.21-6.99-4.82-11.69-4.82s-8.66,1.61-11.51,4.82Z"/>
    <path class="cls-1" d="M548.67,84.42h12.59v-15.55h17.54v15.55h18.14v15.67h-18.14v23.08c0,3.14.86,5.55,2.59,7.23s4.08,2.53,7.05,2.53c3.17,0,6.25-.94,9.22-2.83l4.34,12.95c-5.95,3.7-12.03,5.55-18.26,5.55-6.75,0-12.18-2-16.3-6-4.12-3.99-6.18-9.43-6.18-16.3v-26.21h-12.59v-15.67Z"/>
    <path class="cls-1" d="M609.2,133.41c-2.69-4.78-4.04-10.36-4.04-16.75,0-9.76,3-17.82,9.01-24.16,6.01-6.34,13.85-9.52,23.53-9.52,8.92,0,15.88,2.76,20.88,8.28,5,5.53,7.5,13.45,7.5,23.77v6.81h-43.14c1.89,7.79,7.19,11.69,15.91,11.69,6.59,0,12.05-2.41,16.39-7.23l8.92,10.73c-7.23,7.71-16.13,11.57-26.69,11.57-6.43,0-12.08-1.32-16.96-3.95s-8.65-6.38-11.3-11.24ZM627.34,100.51c-2.45,2.21-4.02,5.12-4.7,8.74h26.21c-.08-3.78-1.13-6.7-3.16-8.77-2.03-2.07-5.01-3.1-8.95-3.1s-7.07,1.04-9.4,3.13Z"/>
    <path class="cls-1" d="M704.71,61.46h33.32c4.3,0,8.17.72,11.63,2.17,3.45,1.45,6.28,3.4,8.47,5.88,2.19,2.47,3.87,5.28,5.03,8.44s1.75,6.52,1.75,10.09-.66,7.3-1.99,10.7c-1.33,3.39-3.18,6.4-5.57,9.01s-5.41,4.69-9.07,6.24c-3.66,1.54-7.65,2.32-11.99,2.32h-13.68v31.58h-17.9V61.46ZM722.61,99.97h12.65c3.61,0,6.48-1.09,8.59-3.25,2.11-2.17,3.16-4.94,3.16-8.32,0-3.09-.96-5.62-2.89-7.56-1.93-1.95-4.62-2.92-8.07-2.92h-13.44v22.06Z"/>
    <path class="cls-1" d="M765.88,115.81c0-6.15,1.42-11.75,4.25-16.81,2.83-5.06,6.76-9.02,11.78-11.87,4.94-2.77,10.56-4.15,16.87-4.15s11.75,1.42,16.81,4.24c5.06,2.83,9.02,6.76,11.87,11.78,2.77,4.94,4.16,10.54,4.16,16.81s-1.41,11.72-4.25,16.72c-2.83,5-6.76,8.93-11.78,11.78-5.1,2.85-10.7,4.28-16.81,4.28s-11.79-1.42-16.81-4.25c-5.02-2.83-8.96-6.76-11.81-11.78-2.85-5.1-4.28-10.69-4.28-16.75ZM787.57,103.34c-2.81,3.17-4.22,7.33-4.22,12.48s1.39,9.28,4.19,12.41c2.79,3.13,6.54,4.7,11.24,4.7s8.44-1.56,11.24-4.7c2.79-3.13,4.19-7.27,4.19-12.41s-1.41-9.29-4.22-12.44c-2.81-3.15-6.55-4.73-11.21-4.73s-8.32,1.56-11.21,4.7Z"/>
    <path class="cls-1" d="M830.24,84.42h18.74l12.59,39.89,12.59-39.89h17.54l12.53,39.77,11.63-39.77h19.76l-23.2,63.45h-16.21l-13.32-39.35-13.2,39.35h-16.27l-23.2-63.45Z"/>
    <path class="cls-1" d="M941.87,133.41c-2.69-4.78-4.04-10.36-4.04-16.75,0-9.76,3-17.82,9.01-24.16,6.01-6.34,13.85-9.52,23.53-9.52,8.92,0,15.88,2.76,20.88,8.28,5,5.53,7.5,13.45,7.5,23.77v6.81h-43.14c1.89,7.79,7.19,11.69,15.91,11.69,6.59,0,12.05-2.41,16.39-7.23l8.92,10.73c-7.23,7.71-16.13,11.57-26.69,11.57-6.43,0-12.08-1.32-16.96-3.95s-8.65-6.38-11.3-11.24ZM960.01,100.51c-2.45,2.21-4.02,5.12-4.7,8.74h26.21c-.08-3.78-1.13-6.7-3.16-8.77-2.03-2.07-5.01-3.1-8.95-3.1s-7.07,1.04-9.4,3.13Z"/>
    <path class="cls-1" d="M1040.72,131.36l4.1,13.32c-4.86,2.61-9.68,3.92-14.46,3.92-6.07,0-11.02-1.95-14.85-5.85-3.84-3.89-5.76-9.22-5.76-15.97V61.46h17.54v63.45c0,2.49.67,4.45,2.02,5.88,1.34,1.42,3.14,2.14,5.39,2.14,1.97,0,3.98-.52,6.03-1.56Z"/>
    <path class="cls-1" d="M1081.19,131.36l4.1,13.32c-4.86,2.61-9.68,3.92-14.46,3.92-6.07,0-11.02-1.95-14.85-5.85-3.84-3.89-5.76-9.22-5.76-15.97V61.46h17.54v63.45c0,2.49.67,4.45,2.02,5.88,1.34,1.42,3.14,2.14,5.39,2.14,1.97,0,3.98-.52,6.03-1.56Z"/>
    <path class="cls-1" d="M371.44,244.78c-3.54-6.79-5.3-14.48-5.3-23.08,0-9.16,1.92-17.2,5.75-24.13,3.84-6.93,9.15-12.28,15.94-16.06,6.67-3.61,13.92-5.43,21.75-5.43,6.99,0,13.37,1.51,19.13,4.52,5.76,3.01,10.49,7.37,14.19,13.08l-8.26,6.09c-2.69-4.58-6.29-8.09-10.79-10.54-4.5-2.45-9.46-3.68-14.88-3.68-6.03,0-11.51,1.43-16.45,4.28-4.94,2.85-8.84,6.95-11.69,12.29-2.97,5.46-4.46,11.87-4.46,19.22s1.47,13.67,4.4,19.07c2.93,5.4,6.93,9.49,11.99,12.26,4.98,2.73,10.34,4.1,16.09,4.1,6.23,0,11.76-1.68,16.6-5.06,4.84-3.38,8.59-8.16,11.24-14.34l8.8,4.1c-3.5,8.12-8.49,14.3-14.97,18.56-6.49,4.26-14.05,6.39-22.69,6.39-8.12,0-15.35-1.89-21.69-5.67-6.35-3.78-11.25-9.1-14.7-15.97Z"/>
    <path class="cls-1" d="M455.05,233.45c0-9.16,2.91-16.75,8.74-22.78,5.82-6.02,13.2-9.04,22.12-9.04s16.29,3.01,22.11,9.04c5.82,6.03,8.74,13.62,8.74,22.78s-2.91,16.63-8.74,22.66c-5.83,6.03-13.2,9.04-22.11,9.04s-16.29-3.01-22.12-9.04c-5.82-6.02-8.74-13.57-8.74-22.66ZM467.4,221.46c-1.81,3.45-2.71,7.45-2.71,11.99,0,6.75,1.97,12.27,5.91,16.54,3.94,4.28,9.04,6.41,15.31,6.41s11.34-2.15,15.33-6.45c4-4.29,6-9.8,6-16.51s-2-12.18-6-16.54-9.11-6.54-15.33-6.54c-4.1,0-7.77.98-11.03,2.92s-5.75,4.67-7.47,8.16Z"/>
    <path class="cls-1" d="M582.88,203.08v61.34h-9.4v-12.35c-4.7,8.72-11.93,13.08-21.69,13.08-6.95,0-12.45-2.08-16.51-6.24s-6.09-9.89-6.09-17.21v-38.62h9.64v36.52c0,5.42,1.3,9.6,3.89,12.53,2.59,2.94,6.24,4.4,10.94,4.4,5.66,0,10.37-2.09,14.1-6.27,3.74-4.18,5.61-9.66,5.61-16.45v-30.73h9.52Z"/>
    <path class="cls-1" d="M600.27,203.08h9.46v11.75c2.01-4.18,4.94-7.42,8.8-9.73,3.86-2.31,8.45-3.46,13.8-3.46,6.83,0,12.18,1.98,16.06,5.93,3.87,3.96,5.81,9.41,5.81,16.36v40.49h-9.52v-37.78c0-5.14-1.32-9.16-3.95-12.06-2.63-2.89-6.3-4.34-11-4.34-5.58,0-10.3,2.08-14.13,6.24-3.84,4.15-5.75,9.65-5.75,16.48v31.46h-9.58v-61.34Z"/>
    <path class="cls-1" d="M713.65,210.25l-5.42,6.51c-1.93-2.09-4.39-3.71-7.38-4.88-2.99-1.17-6.06-1.75-9.19-1.75-3.66,0-6.58.83-8.77,2.47-2.19,1.65-3.28,3.85-3.28,6.62,0,3.78,2.43,6.47,7.29,8.08,2.21.76,5.12,1.49,8.74,2.17,5.54,1.25,9.58,2.34,12.11,3.29,2.53.94,4.74,2.44,6.63,4.49,1.97,2.21,2.95,5.27,2.95,9.16,0,5.83-2.21,10.38-6.63,13.68-4.66,3.38-10.27,5.06-16.81,5.06-5.1,0-10.03-1.07-14.79-3.19s-8.71-5.12-11.84-8.98l6.39-6.57c2.21,3.17,5.25,5.65,9.13,7.44,3.88,1.79,7.88,2.68,12.02,2.68,3.9,0,7.05-.79,9.46-2.35,2.41-1.57,3.61-3.75,3.61-6.57s-1.06-4.72-3.19-5.97c-2.13-1.25-5.92-2.45-11.39-3.61-5.54-1.17-9.73-2.28-12.56-3.35-2.83-1.06-5.27-2.7-7.32-4.91-2.21-2.33-3.31-5.62-3.31-9.89,0-5.7,2.05-10.17,6.15-13.41,4.1-3.23,9.34-4.85,15.73-4.85,4.14,0,8.13.73,11.96,2.2,3.84,1.47,7.08,3.61,9.73,6.42Z"/>
    <path class="cls-1" d="M730.31,249.84c-2.49-4.74-3.74-10-3.74-15.79s1.21-11.28,3.65-16.24c2.43-4.96,5.91-8.89,10.45-11.78,4.54-2.93,9.96-4.4,16.27-4.4,8.2,0,14.64,2.59,19.34,7.77,4.7,5.18,7.05,12.33,7.05,21.45v5.78h-47.24c.68,6.35,2.91,11.25,6.69,14.7,3.78,3.45,8.7,5.18,14.76,5.18,8.03,0,14.34-3.33,18.92-10l5.78,5.55c-6.55,8.72-15.02,13.08-25.43,13.08-6.07,0-11.39-1.36-15.97-4.07-4.58-2.71-8.09-6.46-10.54-11.24ZM736.21,228.87h37.66c0-6.18-1.45-10.88-4.34-14.07-2.89-3.19-7.17-4.79-12.84-4.79s-10.58,1.65-14.13,4.94c-3.56,3.29-5.67,7.93-6.36,13.92Z"/>
    <path class="cls-1" d="M823.68,254.3l2.71,7.29c-4.14,2.37-8.26,3.56-12.35,3.56-4.98,0-9.06-1.67-12.23-5-3.17-3.33-4.76-7.79-4.76-13.38v-68.75h9.58v67.67c0,3.33.85,5.96,2.56,7.86,1.71,1.91,3.95,2.86,6.72,2.86s5.28-.7,7.77-2.11Z"/>
    <path class="cls-1" d="M861.01,254.3l2.71,7.29c-4.14,2.37-8.26,3.56-12.35,3.56-4.98,0-9.06-1.67-12.23-5-3.17-3.33-4.76-7.79-4.76-13.38v-68.75h9.58v67.67c0,3.33.85,5.96,2.56,7.86,1.71,1.91,3.95,2.86,6.72,2.86s5.28-.7,7.77-2.11Z"/>
    <path class="cls-1" d="M874.87,176.96c1.39-1.35,3.16-2.02,5.33-2.02s3.93.68,5.27,2.02,2.02,3.1,2.02,5.27c0,2.01-.68,3.69-2.05,5.03-1.36,1.35-3.11,2.02-5.24,2.02s-3.95-.68-5.33-2.02c-1.39-1.34-2.08-3.02-2.08-5.03,0-2.17.69-3.92,2.08-5.27ZM875.38,264.42v-61.34h9.64v61.34h-9.64Z"/>
    <path class="cls-1" d="M903.49,203.08h9.46v11.75c2.01-4.18,4.94-7.42,8.8-9.73,3.86-2.31,8.45-3.46,13.8-3.46,6.83,0,12.18,1.98,16.06,5.93,3.87,3.96,5.81,9.41,5.81,16.36v40.49h-9.52v-37.78c0-5.14-1.32-9.16-3.95-12.06-2.63-2.89-6.3-4.34-11-4.34-5.58,0-10.3,2.08-14.13,6.24-3.84,4.15-5.75,9.65-5.75,16.48v31.46h-9.58v-61.34Z"/>
    <path class="cls-1" d="M971.31,232.6c0-5.58,1.15-10.69,3.46-15.33s5.77-8.41,10.39-11.3c4.62-2.89,9.96-4.34,16.03-4.34,5.42,0,10.12.96,14.1,2.89,3.98,1.93,7.05,4.74,9.22,8.44v-9.88h9.4v59.84c0,9.16-2.82,16.53-8.47,22.11-5.64,5.58-13.03,8.38-22.14,8.38-7.71,0-14.4-1.89-20.07-5.67-5.67-3.78-9.52-8.96-11.57-15.55l8.8-3.8c1.53,5.1,4.35,9.09,8.47,11.96,4.12,2.87,8.99,4.31,14.61,4.31,6.39,0,11.46-1.85,15.22-5.55,3.75-3.7,5.63-8.72,5.63-15.07v-12.95c-4.38,8.07-12.07,12.11-23.08,12.11-8.92,0-16.15-2.82-21.69-8.47-5.54-5.64-8.31-13.03-8.31-22.15ZM980.95,232.37c0,6.43,1.89,11.73,5.67,15.91,3.61,4.26,8.88,6.39,15.79,6.39,6.55,0,11.87-2.05,15.97-6.15,4.02-4.01,6.03-9.4,6.03-16.15s-2.01-12.07-6.03-16.09c-4.02-4.01-9.38-6.02-16.09-6.02s-11.69,2.01-15.43,6.02c-3.94,4.06-5.91,9.42-5.91,16.09Z"/>
  </g>
</svg>